HIERARCHY
ROOT Hips
{
	OFFSET -0.001795 -0.223333 0.028219
	CHANNELS 6 Xposition Yposition Zposition Zrotation Yrotation Xrotation 
	JOINT LeftUpLeg
	{
		OFFSET 0.069520 -0.091406 -0.006815
		CHANNELS 3 Zrotation Yrotation Xrotation
		JOINT LeftLeg
		{
			OFFSET 0.034277 -0.375199 -0.004496
			CHANNELS 3 Zrotation Yrotation Xrotation
			JOINT LeftFoot
			{
				OFFSET -0.013596 -0.397961 -0.043693
				CHANNELS 3 Zrotation Yrotation Xrotation
				JOINT LeftToe
				{
					OFFSET 0.026358 -0.055791 0.119288
					CHANNELS 3 Zrotation Yrotation Xrotation
					End Site
					{
						OFFSET 0.000000 0.000000 0.000000
					}
				}
			}
		}
	}
	JOINT RightUpLeg
	{
		OFFSET -0.067670 -0.090522 -0.004320
		CHANNELS 3 Zrotation Yrotation Xrotation
		JOINT RightLeg
		{
			OFFSET -0.038290 -0.382569 -0.008850
			CHANNELS 3 Zrotation Yrotation Xrotation
			JOINT RightFoot
			{
				OFFSET 0.015774 -0.398415 -0.042312
				CHANNELS 3 Zrotation Yrotation Xrotation
				JOINT RightToe
				{
					OFFSET -0.025372 -0.048144 0.123348
					CHANNELS 3 Zrotation Yrotation Xrotation
					End Site
					{
						OFFSET 0.000000 0.000000 0.000000
					}
				}
			}
		}
	}
	JOINT Spine
	{
		OFFSET -0.002533 0.108963 -0.026696
		CHANNELS 3 Zrotation Yrotation Xrotation
		JOINT Spine1
		{
			OFFSET 0.005487 0.135180 0.001092
			CHANNELS 3 Zrotation Yrotation Xrotation
			JOINT Spine2
			{
				OFFSET 0.001457 0.052922 0.025425
				CHANNELS 3 Zrotation Yrotation Xrotation
				JOINT Neck
				{
					OFFSET -0.002778 0.213870 -0.042857
					CHANNELS 3 Zrotation Yrotation Xrotation
					JOINT Head
					{
						OFFSET 0.005152 0.064970 0.051349
						CHANNELS 3 Zrotation Yrotation Xrotation
						End Site
						{
							OFFSET 0.000000 0.000000 0.000000
						}
					}
				}
				JOINT LeftShoulder
				{
					OFFSET 0.078845 0.121749 -0.034090
					CHANNELS 3 Zrotation Yrotation Xrotation
					JOINT LeftArm
					{
						OFFSET 0.090977 0.030469 -0.008868
						CHANNELS 3 Zrotation Yrotation Xrotation
						JOINT LeftForeArm
						{
							OFFSET 0.259612 -0.012772 -0.027456
							CHANNELS 3 Zrotation Yrotation Xrotation
							JOINT LeftHand
							{
								OFFSET 0.249234 0.008986 -0.001171
								CHANNELS 3 Zrotation Yrotation Xrotation
								End Site
								{
									OFFSET 0.000000 0.000000 0.000000
								}
							}
						}
					}
				}
				JOINT RightShoulder
				{
					OFFSET -0.081759 0.118833 -0.038615
					CHANNELS 3 Zrotation Yrotation Xrotation
					JOINT RightArm
					{
						OFFSET -0.096012 0.032551 -0.009143
						CHANNELS 3 Zrotation Yrotation Xrotation
						JOINT RightForeArm
						{
							OFFSET -0.253742 -0.013329 -0.021401
							CHANNELS 3 Zrotation Yrotation Xrotation
							JOINT RightHand
							{
								OFFSET -0.255298 0.007772 -0.005559
								CHANNELS 3 Zrotation Yrotation Xrotation
								End Site
								{
									OFFSET 0.000000 0.000000 0.000000
								}
							}
						}
					}
				}
			}
		}
	}
}
MOTION
Frames: 6
Frame Time: 0.050000
0.082862 0.933910 -0.074362 -2.100774 -3.155193 9.347850 0.151463 -1.272826 -14.899022 -2.963794 0.312762 6.676382 3.200990 6.526427 -1.061493 0.000000 0.000000 0.000000 4.611269 1.382169 -11.208594 2.892495 0.105267 17.510988 -3.165945 -7.855699 -0.423624 0.000000 0.000000 0.000000 -8.520806 0.434060 2.645746 6.316152 -0.740058 -25.704206 1.132548 1.478989 29.256885 5.172108 0.623221 -45.455342 0.000000 0.000000 0.000000 -27.373730 -1.437664 -0.658802 -56.460998 -9.764038 -4.671963 -6.590400 -52.166587 7.038069 0.000000 0.000000 0.000000 18.135257 15.318853 7.216590 60.617211 20.279107 2.120491 -16.674070 64.766420 -5.571721 0.000000 0.000000 0.000000 
0.083458 0.932019 -0.090042 -2.025199 -3.264397 9.448688 0.066934 -1.321142 -15.407151 -2.797263 0.287058 5.936923 3.282469 6.844863 -0.541354 0.000000 0.000000 0.000000 5.298980 1.208028 -9.855883 1.537717 0.335827 14.559295 -3.232858 -7.690903 -1.257260 0.000000 0.000000 0.000000 -7.864570 0.391928 2.534461 5.970080 -0.689992 -25.421518 1.077030 1.719014 29.854220 4.436070 0.889229 -45.477610 0.000000 0.000000 0.000000 -28.543161 0.754098 -2.247168 -58.018102 -3.782535 -7.651777 -8.287609 -46.552081 6.873685 0.000000 0.000000 0.000000 18.764600 12.283065 5.695845 63.162789 11.771760 -2.448971 2.834941 60.108065 5.940710 0.000000 0.000000 0.000000 
0.084335 0.931883 -0.107237 -1.685845 -3.058853 9.613143 -0.183113 -1.413480 -16.142408 -2.767612 0.281517 5.268490 3.330440 7.181551 0.356056 0.000000 0.000000 0.000000 5.713352 1.212002 -9.784074 0.667421 0.442421 12.704871 -3.356708 -7.954841 -1.404124 0.000000 0.000000 0.000000 -7.534643 0.374232 2.611465 5.671283 -0.597810 -25.722887 0.760153 1.382361 30.492171 4.340611 0.845495 -45.172761 0.000000 0.000000 0.000000 -29.347547 2.675438 -3.535875 -59.363355 1.088285 -10.241341 -10.268567 -42.393522 6.984048 0.000000 0.000000 0.000000 19.966953 9.995469 4.457355 63.403005 4.298933 -6.603484 12.998956 53.630094 10.018254 0.000000 0.000000 0.000000 
0.085266 0.932384 -0.125200 -1.585258 -3.042721 9.379848 -0.530750 -1.484475 -16.486324 -1.985452 0.163259 4.597283 3.551972 7.848534 1.196740 0.000000 0.000000 0.000000 6.149651 1.164948 -9.364762 0.199972 0.470168 11.258006 -3.469129 -8.362244 -1.053887 0.000000 0.000000 0.000000 -6.679321 0.316110 2.787280 5.356608 -0.527728 -25.789594 0.356586 1.462616 31.059352 4.147012 0.839482 -44.445488 0.000000 0.000000 0.000000 -29.405129 4.172483 -4.577892 -60.677069 4.994823 -12.419666 -14.168423 -40.616704 8.142495 0.000000 0.000000 0.000000 20.965749 7.806949 3.270377 63.058369 -1.517263 -9.726316 18.331380 47.869393 10.990025 0.000000 0.000000 0.000000 
0.085990 0.932777 -0.143485 -1.197281 -2.248538 9.487754 -0.755975 -1.580271 -17.073799 -1.651871 0.101815 4.783999 3.994001 8.701916 0.946409 0.000000 0.000000 0.000000 6.359441 1.229163 -9.706656 -0.018316 0.447570 10.172912 -4.223868 -10.465356 -0.487713 0.000000 0.000000 0.000000 -6.441333 0.297644 2.750816 5.632522 -0.580372 -25.778793 -0.137469 0.624187 31.508783 3.652473 0.926953 -43.940846 0.000000 0.000000 0.000000 -29.650710 5.508312 -5.385229 -61.933878 6.958887 -13.728945 -17.551584 -39.501810 9.253875 0.000000 0.000000 0.000000 20.226906 6.266247 2.322062 63.791371 -6.107503 -12.328342 21.419720 44.365764 11.242578 0.000000 0.000000 0.000000 
0.086473 0.933273 -0.161836 -0.801231 -1.320704 9.139522 -1.074514 -1.666568 -17.334340 -1.305582 0.025539 5.562801 4.386102 9.493751 0.894108 0.000000 0.000000 0.000000 6.394787 1.223327 -9.611298 0.068740 0.385386 9.453912 -4.787256 -12.053221 0.237122 0.000000 0.000000 0.000000 -6.155002 0.275416 3.442165 5.386053 -0.497235 -26.112214 -0.047555 0.139791 31.948197 3.082375 1.115753 -43.587044 0.000000 0.000000 0.000000 -29.607226 5.879242 -5.661584 -62.890540 7.968884 -14.501737 -20.627958 -38.986428 10.307675 0.000000 0.000000 0.000000 20.114968 4.303407 1.277377 64.624133 -9.659288 -14.455979 23.630909 42.399530 11.587161 0.000000 0.000000 0.000000 
